<?xml version="1.0" encoding="utf-8"?>
<!-- Svg Vector Icons : http://www.onlinewebfonts.com/icon -->
<!DOCTYPE svg PUBLIC "-//W3C//DTD SVG 1.1//EN" "http://www.w3.org/Graphics/SVG/1.1/DTD/svg11.dtd">
<svg version="1.1" xmlns="http://www.w3.org/2000/svg" xmlns:xlink="http://www.w3.org/1999/xlink" x="0px" y="0px" viewBox="0 0 1000 1000" enable-background="new 0 0 1000 1000" xml:space="preserve">
<metadata> Svg Vector Icons : http://www.onlinewebfonts.com/icon </metadata>
<g><g transform="translate(0.000000,511.000000) scale(0.100000,-0.100000)"><path d="M8172,2622.4c-130.1-262.2-237.4-476.9-239.5-476.9c-35.1,0-1009.5-146.6-1015.7-152.8c-4.1-6.2,159-175.5,363.3-377.8l373.7-367.5L7563,741.7c-47.5-278.7-86.7-509.9-82.6-512c4.1-4.1,210.6,99.1,460.4,231.2c249.8,132.1,460.4,239.5,468.6,239.5c8.3,0,216.8-107.4,464.5-237.4c245.7-130.1,454.2-237.4,458.3-237.4c6.2,0-28.9,229.2-78.4,512l-88.8,509.9l371.6,369.5c204.4,202.3,367.5,371.6,363.4,375.7c-4.1,4.1-233.3,41.3-509.9,80.5s-505.8,76.4-512,82.6c-4.1,4.1-113.5,218.8-239.5,474.8l-229.1,468.6L8172,2622.4z M8778.9,2009.3c0-2.1,179.6-28.9,394.3-59.9c216.8-31,396.4-61.9,402.6-66.1c4.1-4.1-121.8-136.2-284.9-291.1l-293.2-282.8l70.2-402.6c39.2-220.9,70.2-404.6,68.1-404.6c-2.1-2.1-167.2,82.6-365.4,187.9l-361.3,192l-258-134.2c-142.5-74.3-307.6-163.1-365.4-196.1c-59.9-33-109.4-57.8-109.4-53.7c0,4.1,33,187.9,72.3,408.8l70.2,402.6l-293.2,282.8c-161,154.8-289,284.9-282.8,291.1c6.2,4.1,187.9,35.1,404.6,66.1l394.3,57.8l183.7,369.5l183.7,367.5l181.7-365.4C8692.2,2176.5,8776.9,2009.3,8778.9,2009.3z"/><path d="M4757.4,2610c-123.9-256-233.3-464.5-241.5-464.5s-235.3-33-501.7-72.3c-268.4-39.2-497.5-72.3-512-72.3c-14.4,0,144.5-167.2,355.1-369.5l381.9-367.5l-86.7-514c-47.5-280.8-84.6-516.1-80.5-518.2c4.1-4.1,214.7,101.2,466.6,233.3L4999,708.7l84.7-47.5c445.9-243.6,838.1-433.5,838.1-406.7c0,18.6-37.1,249.8-82.6,514l-82.6,483.1l371.6,367.5c204.4,202.3,369.6,371.6,365.4,373.7c-2.1,2.1-231.2,39.2-507.9,78.4c-276.6,41.3-507.9,78.5-516.1,82.6c-6.2,6.2-113.5,214.7-239.5,464.5c-123.9,251.9-231.2,456.2-237.4,456.2C4986.6,3074.5,4881.3,2864,4757.4,2610z M5378.8,2001c28.9,0,780.4-107.4,786.5-113.5c2.1-2.1-125.9-134.2-284.9-291.1l-291.1-287l66.1-386.1c37.1-212.6,61.9-392.2,55.7-400.5c-12.4-10.3-472.7,220.9-646.2,324.1l-61.9,37.2l-367.5-192c-200.3-107.4-365.4-187.9-365.4-179.6c0,6.2,28.9,173.4,61.9,369.5c35.1,198.2,61.9,377.8,61.9,398.4c0,24.8-113.5,150.7-291.1,324.1l-293.1,282.8l400.5,59.9c218.8,31,408.8,61.9,417,68.1c10.3,6.2,97,175.5,194.1,375.7l175.5,363.3l181.7-375.7C5279.7,2170.3,5368.5,2001,5378.8,2001z"/><path d="M1214.9,2525.4c-134.2-278.7-208.5-408.8-237.4-421.1c-22.7-8.3-227.1-41.3-454.2-72.3c-227.1-33-417-61.9-423.2-66.1c-4.1-4.1,138.3-154.8,320-336.5l328.2-328.2l-78.4-448c-41.3-245.7-72.3-450-68.1-454.2c4.1-4.1,185.8,84.6,400.5,198.2c216.8,113.5,404.6,206.4,419.1,206.4s204.4-92.9,425.3-208.5c225-115.6,400.5-196.1,400.5-181.7c0,14.4-33,220.9-74.3,460.4l-74.3,435.6l334.4,324.1c202.3,198.2,324.1,330.3,307.6,334.4c-16.5,6.2-200.2,33-410.8,64c-210.6,28.9-404.6,57.8-433.5,64c-45.4,8.3-82.6,70.2-258.1,421.1c-113.5,227.1-210.6,412.9-216.8,412.9C1415.1,2930,1322.2,2746.3,1214.9,2525.4z"/><path d="M2953.1-383.4c-125.9-256-239.5-464.5-247.7-464.5c-37.2,0-1003.3-146.6-1009.5-152.8c-4.1-4.2,161-169.3,367.5-369.6l375.7-361.3l-88.8-509.9c-47.5-278.7-82.6-512-78.4-516.1c4.1-4.1,210.6,99.1,458.3,229.2c247.7,130,456.2,235.3,464.5,235.3c10.3,0,218.8-107.4,466.6-237.4c247.7-130,454.2-233.3,458.3-229.2c4.1,4.2-31,237.4-78.5,518.2l-88.8,512l381.9,367.5c208.5,202.3,373.7,367.4,367.5,369.5c-72.3,4.1-1017.8,146.6-1030.1,154.8c-8.3,4.1-115.6,214.7-239.5,464.5C3310.3-123.2,3205,81.1,3198.8,81.1C3190.5,81.1,3081.1-127.4,2953.1-383.4z M3386.7-627l177.5-357.2l406.7-59.9l406.7-59.9l-293.2-289L3789.2-1684l66.1-390.2c35.1-214.7,61.9-394.3,55.7-398.4c-4.1-6.2-169.3,74.3-363.3,175.5l-353,185.8l-351-185.8c-194.1-101.2-357.1-179.6-363.3-173.4c-6.2,6.2,18.6,183.8,55.7,396.4l66.1,386L2309-1394.9l-291.1,293.1l404.6,57.8l406.7,59.9L3006.8-627c99.1,196.1,183.7,357.1,189.9,357.1C3202.9-269.8,3287.6-430.9,3386.7-627z"/><path d="M6342.9-492.8l-229.2-468.6l-503.7-70.2c-276.6-39.2-509.9-74.3-518.2-78.5c-8.2-4.1,152.8-173.4,359.2-373.7l373.7-367.5l-88.8-509.9c-47.5-282.8-82.6-514-80.5-518.2c4.1-2.1,214.7,103.2,468.6,235.4l458.3,243.6l460.4-241.5c251.9-134.2,462.4-239.5,466.6-237.4c4.1,4.1-33,235.4-80.5,518.2l-88.8,512l373.7,363.3c210.6,204.4,363.3,369.5,348.9,375.7c-12.4,4.1-247.7,41.3-518.2,78.5L7051-961.4l-229.2,468.6c-125.9,258.1-233.3,468.6-239.5,468.6S6468.8-234.7,6342.9-492.8z M6766.1-732.3c148.6-311.7,179.6-363.3,227.1-371.6c28.9-6.2,183.7-31,342.7-53.7s322.1-45.4,361.3-53.7l72.3-12.4l-297.3-282.8l-297.3-282.9l64-381.9c37.1-210.5,66.1-394.3,66.1-408.7c0-14.5-163.1,59.9-361.3,163.1L6582.4-2229l-361.3-187.9c-202.3-105.3-361.3-177.6-361.3-163.1c0,14.4,28.9,198.2,66.1,408.7l66.1,381.9l-299.3,282.9l-297.3,282.8l72.3,12.4c39.2,6.2,202.3,31,361.3,53.7c159,24.8,313.8,47.5,342.7,53.7c47.5,8.2,78.5,57.8,227.1,371.6c95,196.1,177.6,359.2,183.8,359.2C6590.6-373.1,6673.2-536.1,6766.1-732.3z"/></g></g>
</svg>