<?xml version="1.0" encoding="utf-8"?>
<!-- Svg Vector Icons : http://www.onlinewebfonts.com/icon -->
<!DOCTYPE svg PUBLIC "-//W3C//DTD SVG 1.1//EN" "http://www.w3.org/Graphics/SVG/1.1/DTD/svg11.dtd">
<svg version="1.1" xmlns="http://www.w3.org/2000/svg" xmlns:xlink="http://www.w3.org/1999/xlink" x="0px" y="0px" viewBox="0 0 1000 1000" enable-background="new 0 0 1000 1000" xml:space="preserve">
<metadata> Svg Vector Icons : http://www.onlinewebfonts.com/icon </metadata>
<g><g transform="translate(0.000000,511.000000) scale(0.100000,-0.100000)"><path d="M1250.4,2642l-205-428.3l-473.8-66.1L100,2079.4l339.4-341.7l339.4-344l-75.2-421.4c-41-232.4-72.9-437.4-70.6-457.9c2.3-25.1,102.5,18.2,403.2,177.7c218.7,116.2,410,211.9,421.4,211.9c13.7,0,207.3-95.7,432.8-214.1c225.5-118.5,410-214.1,412.3-211.9c2.3,2.3-31.9,214.1-77.5,471.6l-79.7,467l337.1,323.5c186.8,180,334.9,330.3,328,334.9c-4.5,4.6-214.1,36.4-464.7,72.9l-455.6,66.1L1674.1,2642l-218.7,426L1250.4,2642z"/><path d="M4870.2,2619.2l-209.6-430.5l-469.3-66.1l-467-66.1l334.9-337.1l337.1-337.1l-77.5-455.6c-41-252.9-72.9-460.2-68.3-464.7c4.6-4.6,193.6,91.1,419.2,209.6L5077.5,888l426-218.7l423.7-221l-82,471.6l-79.7,471.5l337.1,325.8c186.8,180,334.9,330.3,330.3,334.9c-4.5,2.3-214.1,36.5-467,70.6l-457.9,66.1l-216.4,430.5l-214.1,430.5L4870.2,2619.2z"/><path d="M8323.6,2605.6l-209.6-416.9l-457.9-63.8c-250.6-36.4-462.4-70.6-469.3-75.2c-6.8-6.8,141.3-154.9,328-332.6l339.4-323.5l-72.9-432.8c-41-239.2-79.7-451-86.5-473.8c-9.1-31.9,100.3,13.7,419.2,180l428.2,223.2l410-218.7c230.1-123,412.3-207.3,416.9-191.3c2.3,13.7-29.6,221-72.9,457.9l-75.1,432.8l339.4,341.7l339.4,344l-471.5,66.1l-471.5,63.8l-202.7,419.2c-113.9,227.8-209.6,416.9-214.2,416.9C8535.5,3022.5,8437.5,2835.7,8323.6,2605.6z"/><path d="M3018.1-280.7c-221-446.5-243.8-478.4-307.5-489.8c-36.5-6.8-271.1-41-521.7-79.7c-248.3-36.4-455.6-70.6-462.4-75.2c-4.5-6.8,164-175.4,373.6-375.9l382.7-366.8l-88.8-514.8c-47.8-282.5-82-521.7-75.2-528.5c6.8-6.8,218.7,97.9,471.6,230.1c252.9,132.1,462.4,241.5,467,241.5s214.1-109.3,467-241.5c252.9-132.1,464.7-236.9,469.3-230.1c6.8,6.8-25.1,243.8-75.2,528.5l-86.6,514.8l387.3,373.6l387.3,371.3l-79.7,13.7c-43.3,9.1-282.5,45.6-533.1,82c-248.3,36.4-455.6,68.3-457.9,72.9c-4.6,4.6-111.6,218.7-241.5,480.7l-236.9,471.6L3018.1-280.7z M3439.6-554c95.7-193.6,177.7-355.4,180-357.7c4.6-6.8,776.8-120.7,806.4-120.7c9.1,0-116.2-132.1-277.9-293.9l-293.9-296.1l61.5-371.3c31.9-205,59.2-385,59.2-398.7c0-15.9-152.6,50.1-348.5,152.6c-193.6,100.2-359.9,182.2-371.3,182.2c-13.7,0-177.7-82-369-182.2C2696.9-2340,2537.5-2422,2535.2-2422c-4.6,0,22.8,180,59.2,400.9l68.3,398.7l-296.1,296.1c-161.7,161.7-287,293.9-277.9,293.9c34.2,0,801.9,116.2,808.7,120.7c2.3,4.6,84.3,168.6,177.7,366.8c95.7,198.2,177.7,355.4,182.2,350.8S3343.9-360.4,3439.6-554z"/><path d="M6435.1-412.8L6196-884.3l-508-72.9c-280.2-38.7-512.6-75.2-519.4-82c-4.5-4.6,159.5-177.7,366.7-382.7l378.2-373.6l-91.1-523.9c-50.1-287-88.8-526.2-86.6-528.5c4.5-2.3,218.7,107.1,478.4,246l471.5,250.6l473.8-250.6c259.7-136.7,473.8-246,478.4-243.7c2.3,4.5-36.4,241.5-86.6,528.5l-91.1,521.7l391.8,382.7c214.1,209.6,382.7,380.4,375.9,380.4c-29.6,0-961.3,136.7-1013.7,148.1c-41,9.1-100.2,109.3-284.7,478.4c-127.6,257.4-236.9,467-243.8,467C6678.9,61,6567.3-150.8,6435.1-412.8z M7098-1039.2c29.6-6.8,218.7-34.2,416.9-63.8l364.5-52.4l-300.7-287L7278-1727.2l68.3-396.4c38.8-216.4,66.1-398.7,61.5-403.2c-4.6-6.8-164,72.9-353.1,173.1c-191.4,100.2-355.4,182.2-366.8,182.2c-9.1,0-175.4-82-366.7-182.2c-191.3-102.5-350.8-180-355.4-175.4c-4.5,2.3,25,186.8,61.5,403.2l70.6,398.7l-291.6,277.9c-161.7,152.6-287,282.5-282.5,287c6.9,6.8,159.5,34.2,341.7,59.2c182.2,27.3,359.9,54.7,394.1,61.5c54.7,11.4,86.5,56.9,246,380.4l184.6,366.8L6868-661.1C7011.5-957.2,7054.8-1027.8,7098-1039.2z"/></g></g>
</svg>