<?xml version="1.0" encoding="utf-8"?>
<!-- Svg Vector Icons : http://www.onlinewebfonts.com/icon -->
<!DOCTYPE svg PUBLIC "-//W3C//DTD SVG 1.1//EN" "http://www.w3.org/Graphics/SVG/1.1/DTD/svg11.dtd">
<svg version="1.1" xmlns="http://www.w3.org/2000/svg" xmlns:xlink="http://www.w3.org/1999/xlink" x="0px" y="0px" viewBox="0 0 1000 1000" enable-background="new 0 0 1000 1000" xml:space="preserve">
<metadata> Svg Vector Icons : http://www.onlinewebfonts.com/icon </metadata>
<g><g transform="translate(0.000000,511.000000) scale(0.100000,-0.100000)"><path d="M1242.6,2571.6c-133.1-264-228.5-428.2-252.9-437.1c-22.2-6.7-228.5-37.7-461.5-71c-230.7-31.1-423.8-62.1-428.2-64.3c-2.2-2.2,146.4-155.3,330.6-337.2l337.2-332.8L688,867.7c-44.4-255.1-77.7-465.9-75.4-468.1c2.2-4.4,193,93.2,421.5,215.2l417.1,219.6L1866.1,617c228.5-122,417.1-213,421.5-204.1c4.4,11.1-28.8,219.6-73.2,468.1l-79.9,452.6l339.5,326.1c186.4,177.5,335,328.4,328.4,335c-6.7,4.4-195.2,35.5-421.5,68.8c-226.3,31.1-432.6,64.3-461.5,71c-42.2,8.9-91,91-257.4,437.1l-206.3,426L1242.6,2571.6z"/><path d="M4863.5,2538.3L4655,2110.1l-459.3-64.3c-255.1-35.5-461.5-71-461.5-79.9s148.7-162,330.6-339.4l332.8-321.7l-77.7-439.3c-42.1-241.8-73.2-452.6-71-465.9c4.4-15.5,179.7,64.3,417.1,190.8l410.5,217.4l430.4-221.9c321.7-166.4,426-213,417.1-181.9c-6.7,24.4-44.4,235.2-84.3,470.4l-73.2,430.4l337.2,335c186.4,184.2,335,335,330.6,337.2c-2.2,2.2-206.3,33.3-454.8,68.8c-248.5,35.5-459.3,68.8-470.4,75.4s-110.9,199.7-219.6,428.2c-110.9,228.5-204.1,414.9-208.6,414.9S4978.9,2771.3,4863.5,2538.3z"/><path d="M8326.9,2538.3l-210.8-428.2l-459.3-64.3c-255.1-35.5-461.5-73.2-461.5-82.1c0-8.9,148.7-159.7,332.8-335l332.8-319.5l-79.9-450.4c-42.2-248.5-75.4-459.3-71-468.1c4.4-11.1,190.8,79.9,417.1,199.7L8537.6,810l430.4-224.1c383.8-199.7,428.2-217.4,417.1-170.8c-6.7,28.8-44.4,241.8-84.3,474.8l-71,421.5l339.5,328.4c186.4,179.7,335,330.6,330.6,335c-4.4,2.2-213,35.5-461.5,71c-248.5,33.3-461.5,73.2-472.6,86.5c-11.1,11.1-108.7,204.1-217.4,428.2c-108.7,221.9-201.9,403.8-204.1,403.8C8539.8,2964.3,8442.2,2771.3,8326.9,2538.3z"/><path d="M3044.2-485.7c-115.4-230.7-215.2-426-224.1-432.6c-8.9-6.7-221.9-42.2-472.6-75.4l-459.3-64.3l339.5-339.5l337.2-337.2l-79.9-463.7c-44.4-252.9-77.7-463.7-75.4-465.9c4.4-2.2,193,95.4,423.8,217.4l419.3,219.6l412.7-219.6c226.3-119.8,414.9-206.3,419.3-193c2.2,13.3-28.8,224.1-73.2,468.1l-77.7,443.7l339.5,323.9c184.2,179.7,332.8,330.6,326.1,335c-6.7,6.7-199.7,37.7-432.6,71c-230.7,33.3-439.3,66.6-461.5,75.4c-24.4,8.9-124.2,186.4-246.3,437.1L3252.7-64.2L3044.2-485.7z"/><path d="M6480.9-612.2l-210.8-430.4l-441.5-62.1c-241.8-33.3-457.1-66.6-474.8-71c-20-6.7,82.1-119.8,310.6-339.5l341.7-326.1l-79.9-465.9c-44.4-255.1-77.7-465.9-73.2-470.4c2.2-2.2,193,93.2,419.3,213l414.9,219.7l414.9-217.4c246.3-128.7,417.1-206.4,421.5-190.8c2.2,15.5-28.8,221.9-71,459.3l-77.7,432.6l337.2,339.5c184.1,184.2,332.8,337.2,326.1,339.5c-6.7,2.2-215.2,33.3-465.9,73.2l-454.8,68.8l-213,428.2l-215.2,430.4L6480.9-612.2z"/></g></g>
</svg>