<svg id="Capa_1" enable-background="new 0 0 512 512" height="512" viewBox="0 0 512 512" width="512" xmlns="http://www.w3.org/2000/svg"><g><path d="m490.106 317.553c-1.031 3.611 9.951 16.044 8.767 19.589-33.932 101.613-129.849 174.858-242.873 174.858-103.709 0-193.014-61.669-233.245-150.337-1.129-2.488 5.594-4.999 4.543-7.529-12.554-30.223-11.396-123.179-7.66-140.582.484-2.256-12.938-16.035-12.395-18.268 27.26-112.077 128.291-195.284 248.757-195.284 113.783 0 210.228 74.232 243.549 176.909.933 2.874-10.337 17.923-9.504 20.841 6.384 22.368 6.446 97.434.061 119.803z" fill="#3342ae"/><path d="m468.624 299.794c0 110.298-89.414 199.712-199.712 199.712s-199.712-89.414-199.712-199.712 89.414-199.712 199.712-199.712 199.712 89.415 199.712 199.712z" fill="#3d4ec6"/><path d="m310.018 413.903-56.552-136.529 39.821-16.494 57.21 2.962 71.678-29.69 37.701 91.019-71.678 29.69-38.36 42.548z" fill="#ffdecf"/><path d="m398.052 377.157c-3.904 9.425-14.71 13.901-24.135 9.997l-11.377-4.713c9.425 3.904 13.901 14.71 9.997 24.135-3.904 9.425-14.71 13.901-24.135 9.997l-11.372-4.71c9.422 3.906 13.895 14.709 9.992 24.133-3.904 9.425-14.71 13.901-24.135 9.997l-11.377-4.712c9.425 3.904 13.901 14.709 9.997 24.135-3.904 9.425-14.71 13.901-24.135 9.997l-127.489-52.808c-8.76-3.628-16.571-9.238-22.862-16.42l-17.541-20.024c-6.292-7.182-14.102-12.792-22.862-16.42l-55.812-23.118 37.701-91.019 55.812 23.118c8.76 3.629 18.25 5.185 27.777 4.555l26.562-1.755c9.527-.63 19.017.926 27.777 4.555l25.093 10.394 136.529 56.552c9.423 3.903 13.899 14.709 9.995 24.134z" fill="#d47f6c"/><path d="m323.552 281.865-55.506 22.991-8.88 21.438c-5.206 12.567-19.613 18.535-32.18 13.329-6.283-2.603-9.267-9.806-6.665-16.09l16.495-39.821v-.001c1.802-4.394 5.287-8.097 10.022-10.058l62.576-25.92c9.425-3.904 20.231.572 24.135 9.997 3.904 9.426-.571 20.231-9.997 24.135z" fill="#ffdecf"/><path d="m231.726 341.054c-1.564-.305-3.122-.767-4.653-1.394-6.314-2.588-9.347-9.86-6.736-16.164l16.476-39.777c1.801-4.398 5.288-8.103 10.025-10.066l62.576-25.92c7.435-3.079 15.729-.945 20.816 4.721.014.015.03.029.042.047 7.863 11.865 27.738 8.23 31.528 6.66l60.375-25.008 9.331 22.526-56.346 23.34c-11.24 4.656-29.35 4.038-40.306-1.252-8.69-4.196-18.095-7.684-22.545-5.841l-56.14 23.254c-4.737 1.962-8.224 5.668-10.025 10.066z" fill="#ffcdbe"/><path d="m486.132 252.075-70.041 29.012c-6.283 2.603-13.487-.381-16.09-6.665l-15.185-36.66c-2.603-6.283.381-13.487 6.665-16.09l108.067-44.763c3.663 11.288 6.563 22.92 8.64 34.835 2.957 16.969-6.142 33.739-22.056 40.331z" fill="#ff9f22"/><path d="m512 256c0 28.361-4.612 55.644-13.127 81.142l-50.84 21.059c-6.283 2.603-13.487-.381-16.09-6.665l-34.179-82.517c-2.603-6.284.381-13.487 6.665-16.09l103.463-42.856c2.698 14.9 4.108 30.249 4.108 45.927z" fill="#ffb52d"/><path d="m397.897 377.52c-4.074 9.283-15.101 13.312-24.466 9.433l-96.791-40.092c-4.713-1.952-6.951-7.355-4.999-12.068 1.952-4.713 7.355-6.951 12.068-4.999l97.277 40.293c6.317 2.617 13.253 1.469 18.317-2.41.428 3.235.006 6.626-1.406 9.843zm-24.11 19.578c-5.064 3.879-12 5.026-18.317 2.41l-97.277-40.293c-4.713-1.952-10.115.286-12.068 4.999-1.952 4.713.286 10.115 4.999 12.068l96.791 40.092c9.366 3.879 20.392-.15 24.466-9.433 1.412-3.218 1.835-6.61 1.406-9.843zm-25.515 29.419c-5.064 3.879-12 5.026-18.317 2.41l-97.277-40.293c-4.713-1.952-10.115.286-12.068 4.999-1.952 4.713.286 10.115 4.999 12.068l96.791 40.092c9.366 3.879 20.392-.15 24.466-9.433 1.412-3.218 1.835-6.609 1.406-9.843zm-25.515 29.42c-5.064 3.878-12 5.026-18.317 2.41l-97.277-40.293c-1.551-.643-43.14-18.911-49.724-26.214l-18.358-20.362c-6.584-7.303-14.715-13.046-23.8-16.809l-57.879-23.974-6.598 15.928 57.879 23.974c18.359 8.914 34.9 34.544 34.9 34.544 6.584 7.303 14.715 13.046 23.8 16.809l33.277 13.404 96.224 39.857c9.366 3.879 20.392-.15 24.466-9.433 1.412-3.216 1.835-6.608 1.407-9.841z" fill="#b2705b"/><path d="m294.038 467.368-7.069 17.066c-2.603 6.284-9.806 9.268-16.09 6.665l-11.377-4.713c-6.284-2.603-9.267-9.806-6.665-16.09-2.603 6.284-9.807 9.268-16.09 6.665l-11.377-4.713c-6.283-2.603-9.267-9.806-6.665-16.09-2.603 6.284-9.807 9.268-16.09 6.665l-11.377-4.713c-6.284-2.603-9.267-9.807-6.665-16.09-2.603 6.283-9.806 9.267-16.09 6.665l-11.377-4.713c-6.284-2.603-9.268-9.806-6.665-16.09l7.069-17.066c3.904-9.426 14.71-13.901 24.135-9.997 9.425 3.904 13.901 14.71 9.997 24.135 3.904-9.425 14.71-13.901 24.135-9.997s13.901 14.71 9.997 24.135c3.904-9.425 14.71-13.901 24.135-9.997s13.901 14.71 9.997 24.135c3.904-9.425 14.71-13.901 24.135-9.997 9.426 3.904 13.901 14.71 9.997 24.135z" fill="#ffdecf"/><path d="m171.476 449.505c-1.006-.142-2.011-.413-2.993-.82l-11.377-4.713c-6.284-2.603-9.267-9.807-6.665-16.09l7.069-17.066c3.904-9.425 14.71-13.901 24.135-9.997 3.108 1.288 5.678 3.326 7.587 5.818-6.323.838-12.04 4.931-14.656 11.248l-7.069 17.066c-2.197 5.301-.416 11.258 3.969 14.554zm30.163-.416 7.069-17.066c2.617-6.317 8.333-10.41 14.656-11.248-1.909-2.492-4.479-4.53-7.587-5.818-9.425-3.904-20.231.572-24.135 9.997l-7.069 17.066c-2.603 6.283.381 13.487 6.665 16.09l11.377 4.713c.982.407 1.987.677 2.993.82-4.384-3.296-6.165-9.253-3.969-14.554zm34.132 14.138 7.069-17.066c2.617-6.317 8.333-10.41 14.656-11.248-1.909-2.492-4.478-4.53-7.587-5.818-9.425-3.904-20.231.572-24.135 9.997l-7.069 17.066c-2.603 6.283.381 13.487 6.665 16.09l11.377 4.713c.982.407 1.987.677 2.993.82-4.384-3.296-6.165-9.253-3.969-14.554zm34.132 14.138 7.069-17.066c2.617-6.317 8.333-10.41 14.656-11.248-1.909-2.492-4.479-4.53-7.587-5.818-9.425-3.904-20.231.572-24.135 9.997l-7.069 17.066c-2.603 6.283.381 13.487 6.665 16.09l11.377 4.713c.982.407 1.987.677 2.993.82-4.384-3.296-6.165-9.253-3.969-14.554z" fill="#ffcdbe"/><path d="m174.262 420.382c-4.713-1.952-6.951-7.355-4.999-12.068l2.356-5.689c1.952-4.713 7.355-6.951 12.068-4.999 4.713 1.952 6.951 7.355 4.999 12.068l-2.356 5.689c-1.952 4.713-7.355 6.951-12.068 4.999zm46.2 9.14 2.356-5.689c1.952-4.713-.286-10.115-4.999-12.068-4.713-1.952-10.115.286-12.068 4.999l-2.356 5.689c-1.952 4.713.286 10.115 4.999 12.068 4.713 1.951 10.116-.287 12.068-4.999zm34.132 14.138 2.356-5.689c1.952-4.713-.286-10.115-4.999-12.068-4.713-1.952-10.115.286-12.068 4.999l-2.356 5.689c-1.952 4.713.286 10.115 4.999 12.068 4.713 1.951 10.116-.287 12.068-4.999zm34.132 14.138 2.356-5.689c1.952-4.713-.286-10.115-4.999-12.068-4.713-1.952-10.115.286-12.068 4.999l-2.356 5.689c-1.952 4.713.286 10.115 4.999 12.068 4.713 1.951 10.116-.287 12.068-4.999z" fill="#ffeee5"/><path d="m449.972 245.375c-3.644 8.797-13.729 12.974-22.526 9.331-8.797-3.644-12.974-13.729-9.331-22.526 3.644-8.797 13.729-12.974 22.526-9.331 8.797 3.644 12.975 13.729 9.331 22.526z" fill="#ffde91"/><path d="m443.145 242.547c-2.082 5.027-7.845 7.414-12.872 5.332s-7.414-7.845-5.332-12.872 7.845-7.414 12.872-5.332 7.414 7.845 5.332 12.872z" fill="#ffc14f"/><path d="m346 48.485v130.78c0 10.209-8.276 18.485-18.485 18.485h-70.284c-.087.212-.193.422-.319.628l-29.284 47.785c-1.66 2.709-5.597 2.709-7.257 0l-29.284-47.785c-.126-.206-.231-.416-.319-.628h-70.284c-10.209 0-18.485-8.276-18.485-18.485v-130.78c.001-10.209 8.277-18.485 18.486-18.485h207.03c10.209 0 18.485 8.276 18.485 18.485z" fill="#1ab975"/><path d="m346 48.485v130.78c0 10.209-8.276 18.485-18.485 18.485h-44.878c-49.472 0-87.776-43.08-82.28-92.246.079-.709.16-1.417.241-2.125 4.802-41.813 40.195-73.379 82.283-73.379h44.634c10.209 0 18.485 8.276 18.485 18.485z" fill="#1ed688"/><path d="m231 112c0 32.032-25.968 58-58 58s-58-25.968-58-58 25.968-58 58-58 58 25.968 58 58z" fill="#169b62"/><path d="m259.386 86c0-2.761 2.239-5 5-5h25.455c2.761 0 5 2.239 5 5s-2.239 5-5 5h-25.455c-2.761 0-5-2.239-5-5zm58.228 18h-53.227c-2.761 0-5 2.239-5 5s2.239 5 5 5h53.227c2.761 0 5-2.239 5-5s-2.239-5-5-5zm-17 23h-36.227c-2.761 0-5 2.239-5 5s2.239 5 5 5h36.227c2.761 0 5-2.239 5-5s-2.239-5-5-5z" fill="#a1ffbc"/><path d="m240.916 70.06-67.882 67.882c-1.171 1.172-2.707 1.758-4.242 1.758s-3.071-.586-4.242-1.758l-29.895-29.895c-2.344-2.343-2.344-6.142 0-8.484 2.342-2.344 6.143-2.344 8.484 0l25.652 25.651 63.64-63.639c2.342-2.344 6.143-2.344 8.484 0 2.345 2.343 2.345 6.142.001 8.485z" fill="#fff"/><path d="m74.535 369.782-25.03-10.368c-6.284-2.603-9.267-9.806-6.665-16.09l37.701-91.019c2.603-6.284 9.806-9.267 16.09-6.665l25.03 10.368c6.284 2.603 9.267 9.806 6.665 16.09l-37.701 91.019c-2.602 6.284-9.806 9.268-16.09 6.665z" fill="#d3d3d8"/><path d="m88.202 336.788-25.03-10.368c-6.284-2.603-9.267-9.807-6.665-16.09l24.035-58.025c2.603-6.284 9.806-9.267 16.09-6.665l25.03 10.368c6.284 2.603 9.267 9.806 6.665 16.09l-24.035 58.025c-2.603 6.284-9.806 9.267-16.09 6.665z" fill="#fff5f5"/><path d="m63.057 317.042-16.965 40.958c-2.603 6.284-9.807 9.268-16.09 6.665l-7.247-3.002c-6.377-14.054-11.521-28.786-15.294-44.058-4.212-17.051 12.634-31.688 28.861-24.967l20.071 8.313c6.283 2.603 9.267 9.807 6.664 16.091z" fill="#d63030"/><path d="m93.219 244.227-33.931 81.917c-2.603 6.283-9.807 9.267-16.09 6.665l-35.626-14.757c-4.946-19.868-7.572-40.653-7.572-62.052 0-20.919 2.509-41.252 7.243-60.715l79.311 32.852c6.283 2.602 9.267 9.806 6.665 16.09z" fill="#e5554e"/><path d="m112.984 273.741c-2.082 5.027-7.845 7.414-12.872 5.332s-7.414-7.845-5.332-12.872 7.845-7.414 12.872-5.332 7.414 7.845 5.332 12.872z" fill="#a6aee5"/></g></svg>