<svg height="512pt" viewBox="0 0 512 512" width="512pt" xmlns="http://www.w3.org/2000/svg"><path d="m163.660156 293.238281 45.800782-83.75 83.734374-45.808593c4.8125-2.628907 7.800782-7.675782 7.800782-13.160157 0-5.480469-2.988282-10.527343-7.800782-13.160156l-83.734374-45.804687-45.800782-83.75c-2.632812-4.8125-7.679687-7.804688-13.160156-7.804688-5.484375 0-10.53125 2.992188-13.160156 7.804688l-45.800782 83.75-83.738281 45.808593c-4.808593 2.628907-7.800781 7.675781-7.800781 13.160157 0 5.480468 2.992188 10.527343 7.800781 13.160156l83.738281 45.804687 45.800782 83.75c2.628906 4.8125 7.675781 7.804688 13.160156 7.804688s10.527344-2.992188 13.160156-7.804688zm0 0"/><path d="m504.199219 283.117188-55.765625-30.503907-30.5-55.773437c-2.628906-4.8125-7.675782-7.804688-13.160156-7.804688-5.484376 0-10.53125 2.992188-13.160157 7.804688l-30.5 55.773437-55.765625 30.503907c-4.8125 2.632812-7.800781 7.679687-7.800781 13.160156 0 5.484375 2.988281 10.53125 7.800781 13.160156l55.765625 30.503906 30.5 55.777344c2.628907 4.808594 7.675781 7.800781 13.160157 7.800781 5.484374 0 10.53125-2.992187 13.160156-7.800781l30.5-55.777344 55.765625-30.503906c4.808593-2.628906 7.800781-7.675781 7.800781-13.160156 0-5.480469-2.992188-10.527344-7.800781-13.160156zm0 0"/><path d="m293.675781 423.566406-35.101562-19.199218-19.199219-35.109376c-2.628906-4.8125-7.675781-7.804687-13.160156-7.804687s-10.53125 2.992187-13.160156 7.804687l-19.199219 35.109376-35.101563 19.199218c-4.808594 2.632813-7.800781 7.679688-7.800781 13.160156 0 5.484376 2.992187 10.527344 7.800781 13.160157l35.101563 19.203125 19.199219 35.105468c2.628906 4.8125 7.675781 7.804688 13.160156 7.804688s10.53125-2.992188 13.160156-7.804688l19.199219-35.105468 35.101562-19.203125c4.808594-2.632813 7.800781-7.675781 7.800781-13.160157 0-5.480468-2.992187-10.527343-7.800781-13.160156zm0 0"/></svg>