<svg id="Capa_1" enable-background="new 0 0 512 512" height="512" viewBox="0 0 512 512" width="512" xmlns="http://www.w3.org/2000/svg"><g><path d="m306 512h-100v-90h100z" fill="#265d77"/><path d="m256 422h50v90h-50z" fill="#132f3b"/><path d="m512 452h-424v-261h334c49.626 0 90 40.374 90 90z" fill="#b7e4f8"/><path d="m422 191h-166v261h256v-171c0-49.626-40.374-90-90-90z" fill="#6fc8f1"/><path d="m241 0h30v279h-30z" fill="#ffb234"/><path d="m180 452h-180v-171c0-49.626 40.374-90 90-90s90 40.374 90 90z" fill="#388cb3"/><path d="m180 452h-180v-171c0-49.626 40.374-90 90-90s90 40.374 90 90zm-150-30h120v-141c0-33.084-26.916-60-60-60s-60 26.916-60 60z" fill="#4bbaed"/><path d="m256 0h15v279h-15z" fill="#ff9f01"/><path d="m330.213 130h-89.213v-130h89.213l65 65z" fill="#ff7b01"/><path d="m330.213 130h-74.213v-130h74.213l65 65z" fill="#ff4f18"/><path d="m256 354c-24.813 0-45-20.187-45-45s20.187-45 45-45 45 20.187 45 45-20.187 45-45 45z" fill="#265d77"/><path d="m301 309c0-24.813-20.187-45-45-45v90c24.813 0 45-20.187 45-45z" fill="#132f3b"/></g></svg>