<svg height="512" viewBox="0 0 512 512" width="512" xmlns="http://www.w3.org/2000/svg"><g id="Santa_Claus_Ride_Sleigh" data-name="Santa Claus Ride Sleigh"><g id="Flat"><path d="m112.005 511.52a8 8 0 0 1 -5-14.248l79-63.2a8 8 0 0 1 10 12.494l-79 63.2a7.97 7.97 0 0 1 -5 1.754z" fill="#d3d3d3"/><path d="m192.005 511.52a8 8 0 0 1 -5-14.248l79-63.2a8 8 0 0 1 10 12.494l-79 63.2a7.97 7.97 0 0 1 -5 1.754z" fill="#d3d3d3"/><path d="m272.005 511.52a8 8 0 0 1 -5-14.248l79-63.2a8 8 0 0 1 10 12.494l-79 63.2a7.97 7.97 0 0 1 -5 1.754z" fill="#d3d3d3"/><path d="m504 352c-60.252 0-109.105-96.322-111.155-100.422a8 8 0 0 1 14.31-7.156c.531 1.057 46.491 91.578 96.845 91.578a8 8 0 0 1 0 16z" fill="#f2bb88"/><path d="m504 400c-26.415 0-52.007-22.961-76.064-68.247-17.153-32.286-34.79-80.03-35.207-81.365a8 8 0 0 1 15.271-4.774c10.652 34.041 54.93 138.386 96 138.386a8 8 0 0 1 0 16z" fill="#ffe4c2"/><rect fill="#d65858" height="48" rx="8" width="120" x="240" y="208"/><path d="m45.657 164.284a8 8 0 0 1 -5.657-2.343l-16.971-16.971a24 24 0 1 1 33.942-33.94l16.97 16.97a8 8 0 0 1 0 11.313l-22.627 22.628a8 8 0 0 1 -5.657 2.343z" fill="#e56161"/><path d="m400 256h-16.367a8 8 0 0 1 -8-8v-32a8 8 0 0 1 8-8h16.367a24 24 0 0 1 0 48z" fill="#e56161"/><rect fill="#ededed" height="64" rx="8" width="48" x="343.633" y="200"/><path d="m280 368h-168a8 8 0 0 1 -8-8v-48a8 8 0 0 1 1.054-3.969l29-50.744-71.477-72.769a8 8 0 0 1 .05-11.263l22.626-22.631a8 8 0 0 1 10.625-.615l45.008 35.655 29.781 22.336h85.333a8 8 0 0 1 5.5 2.195c23.039 21.842 42.5 64.799 42.5 93.805a112.729 112.729 0 0 1 -17.233 60.269 8 8 0 0 1 -6.767 3.731z" fill="#e56161"/><rect fill="#bf4b4b" height="48" rx="8" width="160" x="168" y="352"/><path d="m352 400h-32a8 8 0 0 1 -8-8v-32a40.045 40.045 0 0 1 40-40 8 8 0 0 1 8 8v64a8 8 0 0 1 -8 8z"/><path d="m240 256c-27.739 0-55.9-7.74-77.271-21.236-22.071-13.939-34.729-32.442-34.729-50.764 0-14.595 5.777-28.839 8-33.778v-62.222a8 8 0 0 1 8-8h128a8 8 0 0 1 8 8v62.222c2.223 4.939 8 19.183 8 33.778 0 14.72-10.433 24.035-20.521 33.042-10.018 8.944-19.479 17.391-19.479 30.958a8 8 0 0 1 -8 8z" fill="#ededed"/><path d="m320 64h-160a8 8 0 0 1 -6.146-13.122l15.54-18.647a89.578 89.578 0 0 1 132.157-5.994l24.106 24.106a8 8 0 0 1 -5.657 13.657z" fill="#e56161"/><path d="m256 64a8 8 0 0 1 -8-8v-16a8 8 0 0 1 16 0v16a8 8 0 0 1 -8 8z" fill="#bf4b4b"/><circle cx="344" cy="72" fill="#ededed" r="8"/><path d="m325.656 50.343-24.106-24.106a88.892 88.892 0 0 0 -53.675-25.709 83.878 83.878 0 0 1 -34.584 63.472h106.709a8 8 0 0 0 5.656-13.657z" fill="#d65858"/><path d="m160 80h96a0 0 0 0 1 0 0v56a16 16 0 0 1 -16 16h-64a16 16 0 0 1 -16-16v-56a0 0 0 0 1 0 0z" fill="#ffe4c2"/><path d="m280 137.634a112.089 112.089 0 0 1 -149.428 60.766c4.74 13.335 15.886 26.091 32.156 36.367 21.372 13.493 49.533 21.233 77.272 21.233a8 8 0 0 0 8-8c0-13.567 9.461-22.014 19.478-30.958 10.089-9.007 20.522-18.322 20.522-33.042 0-14.595-5.778-28.839-8-33.778z" fill="#e2e2e2"/><path d="m244.85 80h-84.85v56a15.988 15.988 0 0 0 14.858 15.942 120.34 120.34 0 0 1 69.992-71.942z" fill="#ffd9b0"/><path d="m200 160h-16a8 8 0 0 1 0-16h16a8 8 0 0 1 0 16z" fill="#fff"/><path d="m232 160h-16a8 8 0 0 1 0-16h16a8 8 0 0 1 0 16z" fill="#fff"/><path d="m272 96h-128a8 8 0 0 1 -8-8v-16a24.027 24.027 0 0 1 24-24h96a24.027 24.027 0 0 1 24 24v16a8 8 0 0 1 -8 8z" fill="#e2e2e2"/><circle cx="160" cy="68" fill="#fff" r="12"/><circle cx="192" cy="72" fill="#fff" r="8"/><path d="m256 48h-24.516a64.013 64.013 0 0 1 -32.5 48h73.016a8 8 0 0 0 8-8v-16a24.027 24.027 0 0 0 -24-24z" fill="#d3d3d3"/><circle cx="184" cy="120" fill="#3f3f3f" r="8"/><circle cx="232" cy="120" fill="#525252" r="8"/><path d="m62.627 192.568a8 8 0 0 1 -5.657-2.343l-22.627-22.625a8 8 0 0 1 0-11.314l33.941-33.941a8 8 0 0 1 5.657-2.345 8 8 0 0 1 5.658 2.343l22.627 22.628a8 8 0 0 1 0 11.313l-33.942 33.941a8 8 0 0 1 -5.657 2.343z" fill="#ededed"/><path d="m125.643 272-20.589 36.031a8 8 0 0 0 -1.054 3.969v8h189.792v-48z" fill="#525252"/><path d="m272 320h30.892a115.712 115.712 0 0 0 1.108-16c0-9.568-2.128-20.655-5.792-32h-26.208a8 8 0 0 0 -8 8v32a8 8 0 0 0 8 8z" fill="#e2e2e2"/><path d="m268 304a36.431 36.431 0 0 1 -4-.226v8.226a8 8 0 0 0 8 8h30.892a115.712 115.712 0 0 0 1.108-16 94.333 94.333 0 0 0 -2.918-21.79 36.005 36.005 0 0 1 -33.082 21.79z" fill="#d3d3d3"/><g fill="#e2e2e2"><path d="m112 512a8 8 0 0 1 -8-8v-64a8 8 0 0 1 16 0v64a8 8 0 0 1 -8 8z"/><path d="m192 512a8 8 0 0 1 -8-8v-64a8 8 0 0 1 16 0v64a8 8 0 0 1 -8 8z"/><path d="m272 512a8 8 0 0 1 -8-8v-64a8 8 0 0 1 16 0v64a8 8 0 0 1 -8 8z"/><path d="m352 512a8 8 0 0 1 -8-8v-64a8 8 0 0 1 16 0v64a8 8 0 0 1 -8 8z"/></g><path d="m375.406 448h-279.406c-32.946 0-65.16-24.343-71.81-54.265l-24.012-112.059a8 8 0 0 1 7.822-9.676h88.2a102.223 102.223 0 0 1 98.406 75.162l5.049 18.513c4.559 13.525 10.95 18.325 24.345 18.325h122.335c8.629-19.379 33.376-32 53.665-32h16a8 8 0 0 1 7.845 9.569l-11.177 55.883a38.1 38.1 0 0 1 -37.262 30.548z" fill="#e56161"/><path d="m422.187 354.928a8 8 0 0 0 -6.187-2.928h-16c-20.289 0-45.036 12.621-53.665 32h-14.376a233.163 233.163 0 0 1 -70.344 64h113.791a38.1 38.1 0 0 0 37.262-30.548l11.177-55.883a8 8 0 0 0 -1.658-6.641z" fill="#d65858"/><circle cx="172" cy="388" fill="#f29c9c" r="12"/><path d="m128.721 400.667a8.007 8.007 0 0 1 -3.616-.864l-21.105-10.695-21.1 10.692a8 8 0 0 1 -11.5-8.535l3.964-22.265-16.842-15.825a8 8 0 0 1 4.369-13.754l23.522-3.294 10.466-20.439a8 8 0 0 1 14.242 0l10.466 20.439 23.522 3.294a8 8 0 0 1 4.369 13.754l-16.842 15.825 3.962 22.267a8 8 0 0 1 -7.877 9.4z" fill="#ffd740"/><circle cx="44" cy="308" fill="#f29c9c" r="12"/><circle cx="84" cy="348" fill="#ffe7a4" r="8"/><path d="m151.625 344.922a8 8 0 0 0 -6.516-5.5l-21.367-2.992a72.131 72.131 0 0 1 -50.682 45.52l-1.66 9.315a8 8 0 0 0 11.5 8.535l21.1-10.692 21.105 10.692a8 8 0 0 0 11.493-8.538l-3.962-22.262 16.842-15.823a8 8 0 0 0 2.147-8.255z" fill="#ffc400"/><path d="m102.226 144.971-15.714-15.714a60.058 60.058 0 0 1 -45.255 45.255l15.713 15.713a8 8 0 0 0 11.314 0l33.942-33.941a8 8 0 0 0 0-11.313z" fill="#e2e2e2"/><path d="m343.633 239.88v16.12a8 8 0 0 0 8 8h32a8 8 0 0 0 8-8v-45.443a59.969 59.969 0 0 1 -48 29.323z" fill="#e2e2e2"/><path d="m464 512h-456a8 8 0 0 1 0-16h456a32 32 0 0 0 0-64h-24a8 8 0 0 1 0-16h24a48 48 0 0 1 0 96z" fill="#ededed"/></g></g></svg>